<svg width="354" height="354" xmlns="http://www.w3.org/2000/svg" xmlns:xlink="http://www.w3.org/1999/xlink"><defs><path d="M177 0c97.754 0 177 79.246 177 177 0 48.877-19.811 93.126-51.841 125.157L177 177 51.842 302.158C19.812 270.128 0 225.878 0 177 0 79.246 79.246 0 177 0z" id="a"/><path d="M167 0c92.232 0 167 74.768 167 167 0 46.116-18.693 87.867-48.914 118.088L167 167 48.913 285.087C18.693 254.866 0 213.116 0 167 0 74.768 74.768 0 167 0z" id="d"/><linearGradient x1="8.981%" y1="79.439%" x2="94.007%" y2="79.439%" id="c"><stop stop-color="#7975FF" offset="0%"/><stop stop-color="#F95DFF" offset="100%"/></linearGradient><filter x="-7.6%" y="-7.6%" width="115.3%" height="115.3%" filterUnits="objectBoundingBox" id="f"><feGaussianBlur stdDeviation="25" in="SourceAlpha" result="shadowBlurInner1"/><feOffset dy="1" in="shadowBlurInner1" result="shadowOffsetInner1"/><feComposite in="shadowOffsetInner1" in2="SourceAlpha" operator="arithmetic" k2="-1" k3="1" result="shadowInnerInner1"/><feColorMatrix values="0 0 0 0 0.766666591 0 0 0 0 0.387680948 0 0 0 0 1 0 0 0 0.7 0" in="shadowInnerInner1"/></filter><circle id="g" cx="167" cy="167" r="167"/></defs><g fill="none" fill-rule="evenodd"><mask id="b" fill="#fff"><use xlink:href="#a"/></mask><g mask="url(#b)"><path d="M354 354h-59v-59l.172.001C325.343 264.787 344 223.072 344 177c0-92.232-74.768-167-167-167S10 84.768 10 177c0 46.072 18.657 87.787 48.828 118.001L59 295v59H0V0h354v354z" fill="url(#c)"/><g transform="translate(10 10)"><mask id="e" fill="#fff"><use xlink:href="#d"/></mask><g mask="url(#e)" fill="#000"><use filter="url(#f)" xlink:href="#g"/></g></g></g></g></svg>
