<svg width="420" height="420" xmlns="http://www.w3.org/2000/svg" xmlns:xlink="http://www.w3.org/1999/xlink"><defs><linearGradient x1="50%" y1="50%" x2="50%" y2="100%" id="c"><stop stop-color="#F8FDFC" offset="0%"/><stop stop-color="#F1F7FE" offset="100%"/></linearGradient><filter x="-17.7%" y="-17.7%" width="135.4%" height="135.4%" filterUnits="objectBoundingBox" id="a"><feOffset in="SourceAlpha" result="shadowOffsetOuter1"/><feGaussianBlur stdDeviation="15" in="shadowOffsetOuter1" result="shadowBlurOuter1"/><feColorMatrix values="0 0 0 0 0.773471773 0 0 0 0 0.80504483 0 0 0 0 0.912083209 0 0 0 0.5 0" in="shadowBlurOuter1"/></filter><circle id="b" cx="127" cy="127" r="127"/></defs><g fill="none" fill-rule="evenodd"><g fill="#BDCBDD" font-family="Helvetica" font-size="24"><text transform="translate(12 3)">
                <tspan x="282" y="48">30</tspan>
            </text><text transform="translate(12 3)">
                <tspan x="91" y="48">10</tspan>
            </text><text transform="translate(12 3)">
                <tspan x="21" y="120">5</tspan>
            </text><text transform="translate(12 3)">
                <tspan x="0" y="217">1</tspan>
            </text><text transform="translate(12 3)">
                <tspan x="26" y="315">0</tspan>
            </text><text transform="translate(12 3)">
                <tspan x="381" y="216">75</tspan>
            </text><text transform="translate(12 3)">
                <tspan x="355" y="315">100</tspan>
            </text><text transform="translate(12 3)">
                <tspan x="356" y="120">50</tspan>
            </text><text transform="translate(12 3)">
                <tspan x="185" y="23">20</tspan>
            </text></g><g transform="translate(85 83)"><use fill="#000" filter="url(#a)" xlink:href="#b"/><use fill="url(#c)" xlink:href="#b"/></g><path d="M212 320.323c.534 0 .968.433.968.967v7.742a.968.968 0 0 1-1.936 0v-7.742c0-.534.434-.967.968-.967zm14.523.02.944 7.684a.968.968 0 0 1-1.921.236l-.944-7.684a.968.968 0 1 1 1.921-.236zm-29.877-1.094c.53.074.898.564.824 1.093l-1.078 7.667a.968.968 0 1 1-1.916-.27l1.077-7.666a.968.968 0 0 1 1.093-.824zm-13.2-2.686a.968.968 0 0 1 .685 1.186l-2.004 7.478a.968.968 0 1 1-1.87-.501l2.004-7.478a.968.968 0 0 1 1.185-.685zm58.293.685 2.004 7.478a.968.968 0 1 1-1.87.5l-2.004-7.477a.968.968 0 1 1 1.87-.501zm12.848-4.424 2.9 7.178a.968.968 0 0 1-1.794.725l-2.9-7.178a.968.968 0 1 1 1.794-.725zm-85.693-1.272a.968.968 0 0 1 .512 1.27l-3.025 7.126a.968.968 0 1 1-1.781-.756l3.025-7.127a.968.968 0 0 1 1.269-.513zm99.59-5.656 3.87 6.705a.968.968 0 1 1-1.676.968l-3.87-6.705a.968.968 0 0 1 1.675-.968zm-111.645-.354c.463.267.621.86.354 1.322l-3.871 6.705a.968.968 0 1 1-1.676-.968l3.87-6.705a.968.968 0 0 1 1.323-.354zm122.91-7.244 4.66 6.183a.968.968 0 1 1-1.546 1.165l-4.66-6.183a.968.968 0 1 1 1.546-1.165zm-135.67-1.363c.42.33.495.938.166 1.359l-4.766 6.1a.968.968 0 0 1-1.525-1.191l4.766-6.1a.968.968 0 0 1 1.359-.168zm-10.089-8.925a.968.968 0 0 1 0 1.368l-5.474 5.475a.968.968 0 0 1-1.369-1.369l5.475-5.474a.968.968 0 0 1 1.368 0zm157.388 0 5.475 5.474a.968.968 0 0 1-1.369 1.369l-5.474-5.475a.968.968 0 1 1 1.368-1.368zm8.916-10.255 6.1 4.766a.968.968 0 0 1-1.191 1.525l-6.1-4.766a.968.968 0 1 1 1.19-1.525zm-176.402-1.361a.968.968 0 0 1-.19 1.355l-6.183 4.66a.968.968 0 1 1-1.165-1.546l6.183-4.66a.968.968 0 0 1 1.355.19zm-7.434-11.233a.968.968 0 0 1-.354 1.322l-6.705 3.871a.968.968 0 1 1-.968-1.676l6.705-3.87a.968.968 0 0 1 1.322.353zm192.406-.354 6.705 3.871a.968.968 0 1 1-.968 1.676l-6.705-3.87a.968.968 0 1 1 .968-1.677zm5.957-12.213 7.127 3.025a.968.968 0 1 1-.756 1.781l-7.127-3.025a.968.968 0 1 1 .756-1.781zm-205.11-1.266a.968.968 0 0 1-.535 1.26l-7.178 2.9a.968.968 0 1 1-.725-1.795l7.178-2.9a.968.968 0 0 1 1.26.535zm-4.274-12.774a.968.968 0 0 1-.685 1.185l-7.478 2.004a.968.968 0 1 1-.5-1.87l7.477-2.004a.968.968 0 0 1 1.186.685zm214.312-.685 7.478 2.004a.968.968 0 1 1-.501 1.87l-7.478-2.004a.968.968 0 1 1 .5-1.87zm2.593-13.339 7.667 1.078a.968.968 0 1 1-.27 1.916l-7.666-1.077a.968.968 0 1 1 .269-1.917zM102.5 223.445a.968.968 0 0 1-.843 1.078l-7.684.944a.968.968 0 0 1-.236-1.921l7.684-.944a.968.968 0 0 1 1.079.843zm228.532-14.413a.968.968 0 0 1 0 1.936h-7.742a.968.968 0 1 1 0-1.936h7.742zm-230.322 0a.968.968 0 0 1 0 1.936h-7.742a.968.968 0 0 1 0-1.936h7.742zm230.396-13.656a.968.968 0 0 1-.843 1.078l-7.684.944a.968.968 0 1 1-.236-1.921l7.684-.944a.968.968 0 0 1 1.079.843zm-236.845-2.9 7.666 1.077a.968.968 0 1 1-.269 1.917l-7.667-1.078a.968.968 0 1 1 .27-1.916zm3.013-14.219 7.478 2.004a.968.968 0 1 1-.5 1.87l-7.479-2.004a.968.968 0 0 1 .501-1.87zm230.637.685a.968.968 0 0 1-.684 1.185l-7.478 2.004a.968.968 0 1 1-.501-1.87l7.478-2.004a.968.968 0 0 1 1.185.685zm-4.649-13.895a.968.968 0 0 1-.535 1.26l-7.178 2.9a.968.968 0 1 1-.725-1.794l7.178-2.9a.968.968 0 0 1 1.26.534zM102.808 162.6l7.127 3.025a.968.968 0 0 1-.756 1.781l-7.127-3.025a.968.968 0 0 1 .756-1.781zm6.59-12.954 6.706 3.87a.968.968 0 0 1-.968 1.677l-6.705-3.871a.968.968 0 0 1 .968-1.676zm206.525.354a.968.968 0 0 1-.354 1.322l-6.705 3.87a.968.968 0 0 1-.968-1.675l6.705-3.871a.968.968 0 0 1 1.322.354zm-8.087-12.218a.968.968 0 0 1-.19 1.355l-6.183 4.66a.968.968 0 0 1-1.165-1.546l6.183-4.66a.968.968 0 0 1 1.355.191zm-189.039-1.828 6.1 4.766a.968.968 0 1 1-1.19 1.525l-6.102-4.766a.968.968 0 1 1 1.192-1.525zm178.056-10.807a.968.968 0 0 1 0 1.369l-5.475 5.474a.968.968 0 0 1-1.368-1.368l5.474-5.475a.968.968 0 0 1 1.369 0zm-168.337 0 5.474 5.475a.968.968 0 0 1-1.368 1.368l-5.475-5.474a.968.968 0 1 1 1.369-1.369zm157.363-9.708c.422.329.496.937.167 1.358l-4.766 6.1a.968.968 0 1 1-1.525-1.19l4.766-6.102a.968.968 0 0 1 1.358-.166zm-144.742-1.085 4.66 6.183a.968.968 0 1 1-1.546 1.165l-4.66-6.183a.968.968 0 1 1 1.546-1.165zm12.185-7.923 3.87 6.705a.968.968 0 1 1-1.675.968l-3.871-6.705a.968.968 0 1 1 1.676-.968zM272 106.077c.463.267.621.859.354 1.322l-3.87 6.705a.968.968 0 1 1-1.677-.968l3.871-6.705a.968.968 0 0 1 1.322-.354zm-13.112-6.538a.968.968 0 0 1 .512 1.27l-3.025 7.126a.968.968 0 1 1-1.781-.756l3.025-7.127a.968.968 0 0 1 1.269-.513zm-90.581-.266 2.9 7.178a.968.968 0 0 1-1.794.725l-2.9-7.178a.968.968 0 1 1 1.794-.725zm74.751-5.184a.968.968 0 0 1 .685 1.185l-2.004 7.478a.968.968 0 0 1-1.87-.5l2.004-7.479a.968.968 0 0 1 1.185-.684zm-60.931.684 2.004 7.478a.968.968 0 1 1-1.87.501l-2.004-7.478a.968.968 0 0 1 1.87-.5zm46.574-3.605c.529.074.898.564.823 1.093l-1.077 7.666a.968.968 0 1 1-1.917-.269l1.078-7.667a.968.968 0 0 1 1.093-.823zm-30.247.57.944 7.683a.968.968 0 0 1-1.921.236l-.944-7.684a.968.968 0 0 1 1.921-.236zM212 90c.534 0 .968.433.968.968v7.742a.968.968 0 0 1-1.936 0v-7.742c0-.535.434-.968.968-.968z" fill="#E7E8FC"/><path d="M210 34c97.754 0 177 79.246 177 177 0 48.877-19.811 93.127-51.842 125.158l-7.071-7.071C358.307 298.866 377 257.116 377 211c0-92.232-74.768-167-167-167S43 118.768 43 211c0 46.116 18.693 87.867 48.914 118.088l-7.07 7.07C52.811 304.129 33 259.879 33 211c0-97.754 79.246-177 177-177z" fill="#E7E8FC"/></g></svg>