<svg width="143" height="40" xmlns="http://www.w3.org/2000/svg"><defs><linearGradient x1="8.981%" y1="79.439%" x2="94.007%" y2="79.439%" id="a"><stop stop-color="#7975FF" offset="0%"/><stop stop-color="#F95DFF" offset="100%"/></linearGradient></defs><g fill="none" fill-rule="evenodd"><path d="M67.031 21.259c2.47 0 4.293.638 5.435 1.957l.052.062.281.343-2.242 1.811-.226-.28c-.525-.653-1.618-1.01-3.3-1.01-2.653 0-4.512 1.378-4.598 3.346l-.002.06v.063c.072.493.573.918 1.594 1.239l.07.021.133.04.181.048.092.023.146.034.151.034.16.032c.089.018.18.035.273.05l.14.024.178.028.18.026.126.017.022.004.132.026.1.021.192.042c3.208.73 4.9 2.384 4.737 4.831-.235 3.527-3.253 5.895-7.429 5.848-2.358-.024-4.377-.769-5.967-2.179l-.082-.073-.344-.317 1.965-2.11.263.246c1.074 1.004 2.463 1.533 4.196 1.551 2.69.03 4.399-1.235 4.527-3.157.04-.596-.305-1.049-1.178-1.423l-.06-.025-.113-.045-.085-.032-.085-.03-.123-.042-.062-.02-.133-.041c-.1-.03-.203-.059-.31-.087l-.109-.027-.151-.036-.157-.035-.207-.044-.055-.007-.202-.03-.197-.03-.193-.033-.097-.017-.188-.036-.094-.019-.182-.038a12 12 0 0 1-.64-.158l-.153-.043-.164-.05c-2.177-.676-3.434-1.893-3.655-3.647l-.008-.074-.01-.109-.002-.03v-.044c-.043-3.788 3.18-6.45 7.477-6.45zm55.21 0c2.469 0 4.292.638 5.433 1.957l.053.062.281.343-2.242 1.811-.226-.28c-.526-.653-1.618-1.01-3.3-1.01-2.653 0-4.512 1.378-4.598 3.346l-.002.06v.063c.072.493.573.918 1.594 1.239l.07.021.133.04.18.048.093.023.146.034.151.034.16.032c.088.018.18.035.272.05l.14.024.179.028.18.026.126.017.021.004.133.026.1.021.191.042c3.209.73 4.9 2.384 4.738 4.831-.235 3.527-3.253 5.895-7.43 5.848-2.357-.024-4.376-.769-5.966-2.179l-.082-.073-.344-.317 1.965-2.11.263.246c1.074 1.004 2.463 1.533 4.196 1.551 2.69.03 4.399-1.235 4.527-3.157.04-.596-.306-1.049-1.178-1.423l-.06-.025-.113-.045-.085-.032-.085-.03-.123-.042-.062-.02-.133-.041c-.1-.03-.204-.059-.31-.087l-.109-.027-.151-.036-.157-.035-.207-.044-.055-.007-.202-.03-.197-.03-.193-.033-.097-.017-.188-.036-.095-.019-.182-.038a12 12 0 0 1-.639-.158l-.153-.043-.164-.05c-2.178-.676-3.435-1.893-3.655-3.647l-.008-.074-.01-.109-.002-.03-.001-.044c-.043-3.788 3.181-6.45 7.478-6.45zM30.443 28.82h11.174l-.748 2.883h-8.202l-2.152 8.291h-2.972l2.9-11.174zm69.236 8.287h11.174l-.748 2.883H98.932l.748-2.883zm-61.525 2.883 14.433-19.205 4.463 19.205h-2.956L51.17 27.395l-9.467 12.596h-3.547zm91.517-18.732H143l-.687 2.88-5.436-.001-3.647 15.785-2.974.003 3.647-15.788h-4.918l.687-2.88zm-41.362 0h13.328l-.687 2.88-5.436-.001-3.646 15.785-2.974.003 3.647-15.788h-4.919l.687-2.88zm-14.386 0h13.328l-.688 2.88-5.436-.001-3.646 15.785-2.974.003 3.647-15.788h-4.918l.687-2.88zm27.375 7.562h11.173l-.747 2.883H100.55l.748-2.883zm-68.877-7.567h11.174l-.748 2.883H31.675l.747-2.883zm70.855 0h11.173l-.747 2.883h-11.174l.748-2.883z" fill="#06191C" fill-rule="nonzero"/><path d="M0 22.16C0 9.92 9.903 0 22.12 0c9.049 0 17.076 5.495 20.459 13.723l.101.25-2.673 1.065C37.117 7.76 30.072 2.883 22.119 2.883c-10.627 0-19.242 8.63-19.242 19.276 0 6.101 2.851 11.708 7.546 15.31l12.225-16.266 4.324 18.608h-2.586l-2.982-12.833-9.644 12.833H8.663C3.248 35.673 0 29.186 0 22.159z" fill="url(#a)"/></g></svg>