<svg width="56" height="56" xmlns="http://www.w3.org/2000/svg"><g fill-rule="nonzero" fill="none"><circle fill="#55ACEE" cx="28" cy="28" r="28"/><path d="M45.151 20.123c-1.2.532-2.49.892-3.844 1.052a6.711 6.711 0 0 0 2.943-3.702A13.398 13.398 0 0 1 40 19.097a6.686 6.686 0 0 0-4.886-2.113 6.694 6.694 0 0 0-6.519 8.218A18.999 18.999 0 0 1 14.8 18.21a6.664 6.664 0 0 0-.907 3.365 6.692 6.692 0 0 0 2.977 5.57 6.646 6.646 0 0 1-3.03-.838l-.001.085a6.697 6.697 0 0 0 5.369 6.562 6.67 6.67 0 0 1-3.022.116 6.7 6.7 0 0 0 6.252 4.648 13.428 13.428 0 0 1-8.313 2.865c-.54 0-1.073-.031-1.596-.094 2.96 1.9 6.48 3.007 10.259 3.007 12.31 0 19.042-10.198 19.042-19.043 0-.29-.006-.579-.02-.865a13.572 13.572 0 0 0 3.341-3.464z" fill="#F1F2F2"/></g></svg>