<svg width="18" height="18" xmlns="http://www.w3.org/2000/svg"><path d="m8.544 15.264-3.93 1.644a1.173 1.173 0 0 1-1.53-.61 1.137 1.137 0 0 1-.088-.55l.371-4.194a1.14 1.14 0 0 0-.281-.855l-2.8-3.18a1.14 1.14 0 0 1 .116-1.623c.144-.123.316-.21.502-.252l4.16-.949c.307-.07.573-.26.736-.528L8 .558a1.176 1.176 0 0 1 2 0l2.2 3.609c.163.267.429.458.737.528l4.159.949a1.15 1.15 0 0 1 .874 1.38c-.043.184-.131.354-.256.496l-2.8 3.179a1.14 1.14 0 0 0-.281.855l.37 4.195a1.156 1.156 0 0 1-1.06 1.246 1.181 1.181 0 0 1-.557-.087l-3.93-1.644a1.181 1.181 0 0 0-.912 0z" fill="#E5E9FA" fill-rule="evenodd"/></svg>